<?xml version="1.0" encoding="utf-8"?>
<!-- Generator: Adobe Illustrator 28.1.0, SVG Export Plug-In . SVG Version: 6.00 Build 0)  -->
<svg version="1.1" baseProfile="tiny" id="Layer_1" xmlns="http://www.w3.org/2000/svg" xmlns:xlink="http://www.w3.org/1999/xlink"
	 x="0px" y="0px" viewBox="0 0 1080 1920" overflow="visible" xml:space="preserve">
<rect fill="#F6F7FE" width="1080" height="1920"/>
<g>
	<rect x="0" y="0" fill-rule="evenodd" fill="none" width="1080" height="1920"/>
	<path fill="#A5B5E5" d="M1080,100.8v0.7c-31.9,26.7-64.6,52.9-97.1,79.1c-107.4,86.2-213.7,171.5-287.6,271.3
		C524.7,682,525.9,990,1080,1566.3v0.7C525.3,990.2,524.1,682,694.9,451.5c74-99.9,180.3-185.2,287.7-271.4
		C1015.3,153.9,1048,127.6,1080,100.8"/>
	<path fill="#A5B5E5" d="M1080,78v0.7c-37.3,34.1-76,67.5-114.7,100.9c-107.4,92.6-214.4,185-289.6,290.9
		c-176.3,248.3-177,570.9,404.3,1146.3v0.7C498,1041.7,498.8,718.7,675.3,470.2C750.5,364.3,857.6,271.9,965,179.2
		C1003.8,145.8,1042.6,112.2,1080,78z"/>
	<path fill="#A5B5E5" d="M1080,51.3V52c-42.2,42-86.9,83.2-131.6,124.5c-107.9,99.6-216.5,199.8-293,312.7
		C474.1,756.3,472,1094.5,1080,1665v0.7C471.4,1094.7,473.6,756.2,654.9,488.9C731.5,376,840.1,275.8,948,176.1
		C992.9,134.7,1037.7,93.4,1080,51.3z"/>
	<path fill="#A5B5E5" d="M1080,20.5v0.7c-46.6,50.2-97,99.8-147.7,149.7C823.1,278.3,712.3,387.3,634,508.4
		c-185.1,286.5-187.6,641,446,1202.3v0.7C445.8,1149.7,448.3,794.9,633.6,508.1C711.9,387,822.8,277.9,932,170.5
		C982.8,120.5,1033.3,70.9,1080,20.5z"/>
	<path fill="#A5B5E5" d="M1067.6,0h0.7c-47.1,54.1-98.8,107.9-151.1,162.5C805.9,278.6,691.7,397.7,611.5,528.7
		C423.7,835.1,422.2,1206.3,1080,1754v0.7c-658.4-548-656.9-919.5-469-1226.2c80.3-131,194.5-250.2,305.8-366.3
		C969,107.7,1020.5,53.9,1067.6,0z"/>
	<path fill="#A5B5E5" d="M1036.3,0h0.7c-42,49.7-87.5,99.8-133.7,150.8C789,276.8,670,407.9,587.4,550.7
		C398.5,877.4,399.6,1265.5,1080,1794.6v0.7C399,1265.8,398,877.3,587,550.5c82.7-142.9,201.6-274,316-400.1
		C949.1,99.6,994.4,49.6,1036.3,0z"/>
	<path fill="#A5B5E5" d="M1005,0h0.7c-36.3,44.3-75.2,89.4-114.8,135.3c-118.5,137.4-243.8,282.8-329.2,440
		C373.4,922.1,379.2,1326.9,1080,1832.6v0.6C378.6,1327.2,372.8,922.1,561.3,575c85.4-157.3,210.7-302.7,329.2-440.1
		C930,89.1,968.7,44.2,1005,0z"/>
	<path fill="#A5B5E5" d="M973.6,0h0.6c-30,37.7-61.7,76.2-94,115.5c-123.8,150.5-257.5,313-346,487.8
		c-185.7,366.6-173,787.2,545.8,1264.4v0.6C360.6,1390.8,347.9,969.9,533.8,603c88.6-174.8,222.3-337.4,346.1-487.9
		C912.1,75.9,943.7,37.6,973.6,0z"/>
	<path fill="#A5B5E5" d="M942.1,0h0.6c-22.9,29.5-46.6,59.7-70.9,90.5c-130.4,165.4-275,348.8-367,545
		c-181,385.7-158.6,820.7,575.2,1264.2v0.6c-734.4-443.8-756.8-879-575.6-1265C596.4,439,741.1,255.5,871.5,90.1
		C895.6,59.4,919.3,29.4,942.1,0z"/>
	<path fill="#A5B5E5" d="M910.5,0h0.6c-14.6,19.4-29.6,39.1-44.8,59.2C728.1,241.2,569.3,450.5,473.6,672.7
		c-172.7,401-139.7,844.5,590.9,1247.3h-1.1c-730.2-402.8-763-846.4-590.3-1247.5C568.9,450.2,727.8,240.9,866,58.8
		C881.1,38.9,896,19.3,910.5,0z"/>
	<path fill="#A5B5E5" d="M878.9,0h0.6c-4.9,6.6-9.8,13.3-14.7,20C717.7,220.2,540.1,461.6,440.7,715.9
		C281.5,1123.4,323,1563.8,1011.8,1920h-1.1C322.5,1563.7,281,1123.2,440.3,715.7c99.4-254.4,277-495.9,424.2-696
		C869.3,13.1,874.1,6.5,878.9,0z"/>
	<path fill="#A5B5E5" d="M847.3,0h0.6C694.4,214.1,504.8,484.7,406.4,765.8C263,1175.8,314,1608.2,955.2,1920H954
		c-640.6-311.9-691.5-744.3-548-1154.4C504.3,484.6,693.8,214.1,847.3,0z"/>
	<path fill="#A5B5E5" d="M815.5,0h0.6c-158,225.8-352.2,521.5-444.9,823.1c-125.4,407.9-64.8,826.4,522.8,1096.9h-1.2
		c-587-270.7-647.4-689.3-522.1-1097.1C463.4,521.4,657.6,225.8,815.5,0z"/>
	<path fill="#A5B5E5" d="M783.8,0h0.6C605.8,261.4,383.5,625.2,314.9,978.3C243.1,1347,339.1,1704,827.5,1920h-1.3
		c-487.7-216.2-583.6-573.1-511.9-941.9C383,625.2,605.2,261.4,783.8,0z"/>
	<path fill="#A5B5E5" d="M752,0h0.6c-178,266.4-396.3,647.8-462.4,1011.1c-66.8,367.2,22,715.9,465.2,908.9H754
		c-442.5-193.2-531.1-541.9-464.3-909C355.8,647.7,574,266.4,752,0z"/>
	<path fill="#A5B5E5" d="M720.1,0h0.6C543.8,270.7,330,668.4,265.9,1041.3c-25,145.4-27.2,287,4.4,415.8
		c31.6,128.8,97.1,244.9,207.5,339.1c55.1,47,121.4,88.7,200.2,123.8h-1.3c-78.4-35-144.3-76.5-199.2-123.3
		c-110.5-94.3-176-210.5-207.6-339.4c-31.7-128.9-29.4-270.6-4.5-416.1C329.5,668.3,543.3,270.7,720.1,0z"/>
	<path fill="#A5B5E5" d="M688.3,0h0.6C504.2,288.7,282.6,730.7,233.5,1128.6c-16.9,136.5-13.4,267.8,18.8,385.9
		c32.2,118.1,93.1,223,191.2,306.8c43.7,37.4,94.9,70.5,154.1,98.7h-1.2c-58.9-28.2-109.7-61.2-153.2-98.3
		c-98.2-83.9-159.1-188.9-191.3-307.1c-32.2-118.2-35.6-249.5-18.8-386.1C282.1,730.7,503.6,288.7,688.3,0z"/>
	<path fill="#A5B5E5" d="M656.3,0h0.6C525.5,209.8,377.1,505,286.1,805.2c-68,224.3-104,451.5-77,647.9
		c27,196.4,117.1,362,301.1,463.3c2.2,1.2,4.3,2.4,6.5,3.5h-1.1c-1.9-1-3.8-2-5.7-3.1c-184.2-101.4-274.3-267.2-301.3-463.7
		c-27-196.5,9-423.7,77-648.1C376.6,504.9,524.9,209.8,656.3,0z"/>
	<path fill="#A5B5E5" d="M624.4,0h0.6C487.3,224.2,333,550.8,246,876.7c-59.2,221.8-87.2,443.3-57.4,631.7
		c27.4,173.8,103.9,319.5,250.3,411.6h-1c-146.1-92.2-222.4-237.9-249.8-411.5c-29.8-188.5-1.8-410.1,57.5-631.9
		C332.5,550.8,486.7,224.3,624.4,0z"/>
	<path fill="#A5B5E5" d="M592.4,0h0.6C449,239.1,289.1,599.8,207.5,951.5c-50.6,218.2-71.1,432.9-39,612.8
		C195,1712,256.9,1836.4,366.7,1920h-0.8c-109.6-83.7-171.4-208-197.8-355.6c-32.2-180-11.7-394.8,39-613
		C288.6,599.8,448.4,239.2,592.4,0z"/>
	<path fill="#A5B5E5" d="M560.4,0h0.6C410.8,254.2,245.9,651.3,170.8,1028.4c-42.5,213.6-56.2,420.8-22,591.9
		c24.3,121.6,72.8,225.1,152.3,299.7h-0.7c-79.3-74.7-127.7-178-152-299.6c-34.2-171.2-20.6-378.5,22-592.1
		C245.4,651.2,410.3,254.2,560.4,0z"/>
	<path fill="#A5B5E5" d="M1080,1514.4C553,940.1,549.5,645.8,713.9,432.4c73-94.7,179-173.4,286.9-253.6
		c26.4-19.6,52.9-39.3,79.1-59.4v0.6c-26.1,20-52.5,39.6-78.9,59.2c-107.9,80.1-213.9,158.8-286.8,253.5
		C550.1,645.9,553.6,939.9,1080,1513.6V1514.4z"/>
</g>
<g>
	<path fill="#F6F7FE" stroke="#CACAEA" stroke-width="5" stroke-miterlimit="2.6131" d="M540,758.3c110.7,0,200.4,90.3,200.4,201.7
		c0,111.4-89.7,201.7-200.4,201.7c-110.7,0-200.4-90.3-200.4-201.7C339.6,848.6,429.3,758.3,540,758.3z"/>
	<path fill-rule="evenodd" fill="#E7E7F7" d="M541.5,960.1c0-0.9-0.7-1.7-1.7-1.7c-0.9,0-1.7,0.7-1.7,1.7c0,0.9,0.8,1.7,1.7,1.7
		C540.7,961.8,541.5,961,541.5,960.1"/>
	<path fill-rule="evenodd" fill="#E7E7F7" d="M373.6,998.5l-1.3-5.8l-0.8,0.4l-1.2-0.8l2.8,1.6c-5.8-19.3-6-63.8-17.6-4.1
		c-0.3,8.9-6.1,11.2-6.6-3.1c1.3-4.1,4.2-7.6,1.4-9.5c-0.3-1-0.4-1-0.1-1.9l-0.6-0.4l0.8-0.3l0-4.6c-1.2-0.8,1-3.6-0.2-4.4l-3,1.3
		c-2-1.3-0.2-3.8-2-5l-0.2,0.8l-0.6-0.4c0.1,1.7,0.1,2-0.4,3.4l-0.6-0.4l1.6-30.2c6.5-48.2,6,0.7,8.1-26.7
		c4.7-21.7,8.6-34.9,11.7-39.4l0.8,21l9.2-26.6l11.4-8c-2.5-3.1-13.9,6-7.6-9.2c14.1-16.4,14.7-16.7,17.1-0.7l8.2,0.4l0.3,1.1
		l0.6,0.4l-0.2,0.8l0.6,0.4l0.3,1.1l0.6,0.4l-0.2,0.8l-0.2,0.8l0.6,0.4l-0.8,0.4l-0.2,0.8l-0.6-0.4l-0.6-0.4l-0.2,0.7l-0.8,0.4
		l-1.2-0.8l-0.5,1.5l-0.8,0.3l-0.6-0.4l-1.3,1.9c-1.5-1-1-1.2-1.6,0.7c-1.6,0.7-0.4,1.5,0.7,2.3l0.8-0.4l0.6,0.4l1.6-0.7l0.2-0.8
		l0.6,0.4c0.3-0.1,3.9,1.5,2.1,2.3l-0.2,0.7l-0.8,0.4l-0.6-0.4c-1.2,0.5-0.1,0.3-0.7,2.3l-0.8,0.4l-1.4,0l-0.2,0.8l-0.6-0.4
		c0.2,0.8,0.5,1.5,0.7,2.3l-0.6-0.4c-0.4,1.2,0.2,1.4-0.1,2.7l-0.6-0.4l-0.2,0.7c-0.6-0.4-1.2-0.8-1.7-1.2c0.7,2.4-0.6,1.4-1.6,0.7
		l-0.1-1.9c-0.9,0.4-0.7,0.1-1.1,1.1l-0.6-0.4c-0.9,2.8-2.5,1.3-3.2,3.4l-0.6-0.4l-1.6,0.7c0.4-1.3,1-0.9,0.6,0.4
		c-0.8-0.5-0.5-0.6-0.8,0.4l-0.8,0.4l-0.2,0.7c-1.3-0.8,0,0.1-0.5,1.5l0.6,0.4l0.3,5.7c-0.2,0.8-0.5,1.5-0.7,2.3
		c0.6,0.4,1.2,0.8,1.7,1.2c-0.4,1.2-0.8,2.5-1.2,3.8l0.6,0.4c-0.4,1.4-0.8,2.2,0.4,3l0.2-0.7l0.8-0.4c-0.3-0.9-0.5-3-0.2-3.8
		c1.4-0.6,3.1-0.9,3.7-3l0.8-0.4c0.6-1.9,1.3-7.3,2.1-6.8l0.2-0.7l0.6,0.4l0.8-0.4c0.6-2,1.6-3,2.2-4.9l0.9,1.5l0.8-0.4l1.2,0.8
		l0.8-0.4l0.6,0.4l-0.2,0.8l0.6,0.4c-0.5,1.6-1.4,3.1-0.8,4.9l0.8-0.4c0.8,0.5,0.5,0.4,1.4,0c0.2-0.5,0.3-1,0.5-1.5
		c1.2-0.5,2.1,0,1.5,1.9c2.5,1.7,1.1,3.2,0.3,5.7l0.6,0.4c-0.9,2.8-0.8,7,0.7,2.3l0.7,6.9l0.6,0.4l-0.6-0.4l-0.2,0.8
		c-1.3-0.9-2-1.1-3.4-0.5l-0.2,0.8l-1.6,0.7l-0.5,1.5l-1.6,0.7l-0.6-0.4l0.2-0.8l-1.7-1.2l0.2-0.8c-1.1,0.5-3.1,0.8-3.5,2.2
		l-1.9,1.5l-0.6-0.4l-0.2,0.8l-0.8,0.4l-0.2,0.7l0.6,0.4l-0.2,0.8l1.2,0.8l0.5-1.5l2.8,0.1l0.4,3l-0.8,0.4c-0.4,1.3-0.8,2.5-1.2,3.8
		l-0.8,0.4c-0.2,0.8,9.3,6.4,9,7.2c-0.8-0.5-0.5-0.6-0.8,0.4l-1.6,0.7l-0.6-0.4l-0.2,0.7c0.6-1.8-2.3,0.4-3,0.7l-0.6-0.4l-0.2,0.8
		l-0.6-0.4c-0.8,0.4-1.6,0.7-2.5,1.1l-0.5,1.5c1.5,1,2,1.6,3.7,1.6l-0.2,0.7l0.6,0.4c-0.8,0.4-1.6,0.7-2.5,1.1l-1.2-0.8l-0.2,0.7
		c-0.8,0.4-1.6,0.7-2.5,1.1l0.6,0.4l-0.5,1.5l-0.6-0.4l-2.4-35.5c-3.2,10,4.6,27.6,2.3,38.2l-2.7-36.7l0.3,1.1l-1.2-0.8l-0.8,0.4
		c-1.8-1.2-1.5-0.1-0.2,0.7c-0.6,1.8-1.3,4.1-1.9,6.1l-0.8,0.4l-0.5,1.5l-1.6,0.7l-0.5,1.5c-3.5,1.6,2.5,31.9,1.1,37.4l-0.8,0.3
		c-0.3,1-0.6,2-0.9,3l-0.8,0.4c-0.1,0.5,0.3,9.4,0.5,9.5l-0.4,3.4c-0.9,0.4-0.6,0.5-1.4,0l-0.8,0.4c0.3-1.1-0.2-2.9-1-3.4
		c0.6-2,1-4.9-0.9-6.1l0.2-0.8c-0.6-0.4-2.2-2.7-2.4-3.5l-0.8,0.4l-0.6-0.4l-0.2,0.8l-1.6,0.7c-1.4-0.9-11.7-7.1-13-8l-0.5,1.5
		l-0.8,0.4c-0.6,2-0.8,3-2.6,3.7c-1.9,2.1-0.8,1-1.6,11.8l-0.1-5.4c-0.4,1.3,0.3,1.4-0.1,2.6c3.5,2.3-1.8,4.3,2.6,7.3
		c1.9-2.7,13.7-0.9,10.5,9.4c2.5,1.7-2.9,16.8,0.3,19c-0.4,1.3,0.3,1.4-0.1,2.7l0.6,0.4l-0.2,0.8l0.6,0.4l0.2-0.8l1.2,0.8l-0.2,0.8
		C370.5,996.3,367.4,1026.1,373.6,998.5"/>
	<path fill-rule="evenodd" fill="#E7E7F7" d="M515.4,1132.9l-7.1-2.7l-0.5,0.8l-2.1,0.3l4.7-0.9c-25.7-8.1-70.4-35.5-23.3,9.4
		c8.6,5.7,4.5,11.1-10.3,2.6c-2.7-3.4-3-7.6-8.1-6.8c-1.3-0.4-1.4-0.3-2-1.1l-1,0.2l0.5-0.8l-4.5-2.8c-2.1,0.3-2.6-2.9-4.6-2.6
		l-2,2.9c-3.5,0.5-4-2.2-7.1-1.7l0.5,0.6l-1,0.1c1.8,1,2.1,1.2,3,2.4l-1,0.2l-28.4-19.7c-41.1-34.3,7.3-3.7-17.9-22.1
		c-16.5-16.7-25.4-27.5-26.7-32.4l21.8,12.5l-16.6-22.8l4.5-12.7c-5.8-0.2-9.2,13.2-17.6-0.5c-1-19.8-0.5-20.4,18-12.1l9.3-5.3
		l1.5,0.5l1-0.2l0.5,0.6l1-0.1l1.5,0.5l1-0.2l0.5,0.6l0.5,0.6l1-0.2l-0.5,0.8l0.5,0.6l-1,0.1l-1,0.2l0.5,0.6l-0.5,0.8l-2.1,0.3
		l1,1.2l-0.5,0.8l-1,0.2l0.5,2.1c-2.6,0.4-2.3,0-1.1,1.6c-1.1,1.6,1.1,1.2,3,1l0.5-0.8l1-0.2l1.1-1.6l-0.5-0.6l1-0.2
		c0.2-0.3,5.8-1.7,4.6,0l0.5,0.6l-0.5,0.8l-1,0.1c-0.8,1.1,0.2,0.2,1.5,1.9l-0.5,0.8l-1.6,0.9l0.5,0.6l-1,0.2c1,0.3,2,0.6,3,0.9
		l-1,0.1c0.8,1,1.7,0.7,2.5,1.7l-1,0.1l0.5,0.6c-1,0.1-2.1,0.3-3.1,0.5c3.2,1,0.8,1.3-1.1,1.6l-2-1.1c-0.6,0.8-0.7,0.5,0,1.4l-1,0.2
		c1.8,2.4-1.4,2.5-0.1,4.2l-1,0.2l-1.1,1.6c-0.8-1.1,0.2-1.2,1-0.1c-1.4,0.2-1.2-0.1-0.5,0.8l-0.5,0.8l0.5,0.6c-2.3,0.3,0,0.1,1,1.3
		l1-0.2l6.1,3.3c0.5,0.6,1,1.3,1.5,1.9c1-0.1,2.1-0.3,3.1-0.4c0.8,1,1.7,2.1,2.5,3.1l1-0.2c0.9,1.2,1.3,1.9,3.6,1.6l-0.5-0.6
		l0.5-0.8c-1.2-0.4-3.5-1.6-4-2.2c0.9-1.4,2.5-2.7,1.1-4.4l0.5-0.8c-1.3-1.6-5.9-5.5-4.5-5.7l-0.5-0.6l1-0.2l0.5-0.8
		c-1.3-1.7-1.2-3-2.4-4.6l2.6,0.3l0.5-0.8l2.1-0.3l0.5-0.8l1-0.2l0.5,0.6l1-0.1c1.1,1.4,1.6,2.9,4,3.6l0.5-0.8
		c1.4-0.2,1-0.1,1.6-0.9c-0.3-0.4-0.7-0.8-1-1.3c0.8-1.1,2.3-1.4,3.6,0.2c4.4-0.6,4.4,1.2,6.1,3.3l1-0.2c1.8,2.3,6.1,4.9,3.1,1
		l7.6,3.8l1-0.1l-1,0.1l0.5,0.6c-2.3,0.3-3.2,0.7-4.1,2l0.5,0.6l-1.1,1.6l1,1.2l-1.1,1.6l-1,0.2l-0.5-0.6l-3.1,0.4l-0.5-0.6
		c-0.7,1.1-2.6,2.6-1.6,3.8l-0.6,2.2l-1,0.2l0.5,0.6l-0.5,0.8l0.5,0.6l1-0.1l0.5,0.6l2.1-0.3l-1-1.3l3.1-1.9l3.5,1.6l-0.5,0.8
		c0.8,1.1,1.7,2.1,2.5,3.2l-0.5,0.8c0.5,0.6,1,1.3,1.5,1.9c-1.3,0.2-1.2,0-0.5,0.8l-1.1,1.6l-1,0.2l0.5,0.6
		c-1.2-1.5-2.1,1.8-2.6,2.5l-1,0.1l0.5,0.6l-1,0.1c-0.5,0.8-1.1,1.6-1.6,2.3l1,1.3c2.6-0.4,3.8-0.4,5.7-1.5l0.5,0.6l1-0.2
		c-0.5,0.8-1.1,1.6-1.6,2.3l-2.1,0.3l0.5,0.6c-0.5,0.8-1.1,1.6-1.6,2.3l1-0.2l1,1.3l-1,0.1l-22.6-24c6.6,8.4,17.1,17.5,25.1,25.7
		l-24.1-24.5l1.5,0.5l-2.1,0.3l-0.5,0.8c-3.2,0.5-1.7,1,0.5,0.6c1.2,1.5,2.7,3.4,4,5l-0.5,0.8l1,1.3l-1.1,1.6l1,1.3
		c-2.3,3.4,19,21.7,23.1,26l-0.5,0.8c0.7,0.8,1.3,1.7,2,2.5l-0.5,0.8c0.3,0.4,9.7,5.6,10.1,5.5l3,2.4c-0.6,0.8-0.1,0.7-1.6,0.9
		l-0.5,0.8c-0.7-0.9-3.1-1.7-4.6-1.4c-1.3-1.7-3.8-3.7-7.1-3.2l-0.5-0.6c-1,0.1-5.1-0.2-6.1-0.5l-0.5,0.8l-1,0.1l0.5,0.6l-1.1,1.6
		c-2.4,0.3-4.3-0.1-6.7,0.3l1,1.2l-0.5,0.8c1.3,1.7,2.1,2.4,0.9,4.1c0.1,2.6,0.1,1.2,10,8.4l-5.5-3.3c0.9,1.1,1.7,0.7,2.5,1.7
		c6.1-0.9,2.3,3.9,10.2,2.7c-0.7-2.9,14.1-9.8,20.8-1.3c4.4-0.6,13.5,12.4,19.4,11.5c0.9,1.1,1.7,0.7,2.5,1.7l1-0.2l0.5,0.6l1-0.2
		l-0.5-0.6l2-0.3l0.5,0.6C509.7,1133.7,536.1,1154.3,515.4,1132.9"/>
	<polygon fill-rule="evenodd" fill="#E7E7F7" points="717.9,879.3 719.4,885.1 721.2,891.8 722.6,898.2 723.5,905 724.5,911.7 
		725.3,919.1 725.8,926.3 726.5,933.5 726.4,936.1 726.1,945.9 726.5,945.7 716.1,958.5 716.2,957.8 716,956.8 716.2,956.2 
		716,955.1 715.8,954.1 715.7,954.8 715.4,954.4 715.2,953.4 715.1,951.8 715.3,951.1 715.4,950.4 715.5,949.8 715.6,949.1 
		715.5,948.1 715.3,947.1 715.1,946.1 714.7,946.4 714.3,946 714.2,946.7 714.1,947.4 713.7,947.7 713.4,949 713,949.3 712.8,950 
		712.5,949.7 712.2,949.3 712,948.3 711.7,948 711.4,947.6 711.1,947.3 710.8,946.9 710,946.9 709.7,946.5 709.3,946.9 708.6,946.8 
		708.9,947.2 708.4,947.5 708,947.8 716.1,942.2 715.8,943.5 715.7,944.2 716,944.5 715.9,945.2 715.8,945.9 715.6,946.5 
		715.2,946.8 714.9,946.5 714.3,945.8 714,945.5 713.6,945.1 713.5,944.1 713.2,943.7 712.6,944.7 712.8,945.7 712.3,946.1 
		712.2,946.7 712.1,947.4 711.6,947.7 711.2,948 710.8,948.4 710.5,948 710,948.3 709.9,949 709.5,949.3 709,949.6 708.7,949.3 
		708.4,949 708.1,948.6 707.8,948.3 707.3,948.6 707,948.2 706.9,948.9 706.6,948.6 706.5,949.2 706,949.5 705.6,949.9 704.9,949.8 
		704.5,949.5 704.2,949.1 704.1,948.1 703.7,947.8 703.1,947.1 702.9,946.1 702.6,945.7 702.4,944.7 702.1,944.4 702,943.4 
		701.3,942.7 701,942.3 700.9,943 700.6,942.6 700.3,942.3 700,942 699.5,942.3 699.7,941.6 699.3,941.3 698.7,940.6 698.5,939.6 
		698.5,937.9 698.7,936.6 698.7,934.9 698.5,933.9 699,940.4 698.9,938.7 698.9,937.1 698.7,936 698.8,935.4 698.9,934.7 
		698.8,933.7 698.9,933 698.7,932 698.5,931 698.3,930 698,929.6 697.9,928.6 697.7,927.6 697.1,926.9 697.2,926.3 696.9,925.9 
		696.4,926.3 696.6,925.6 696.7,924.9 696.8,924.2 696.6,923.2 696.8,922.6 696.6,921.6 696.7,920.9 696.8,920.2 697,919.6 
		697.1,918.9 697.2,918.2 697.6,917.9 697.9,916.6 698.2,915.3 698,914.2 698.2,912.9 698,911.9 698.3,910.6 698.1,909.6 
		698.4,908.2 698.5,907.5 698.6,906.9 698.8,906.2 699.2,905.9 699.3,905.2 699.6,905.6 699.9,904.3 700,903.6 699.9,901.9 
		699.9,900.2 699.7,899.2 699.7,897.6 699.9,896.2 700.2,894.9 700.5,892.9 701.1,891.9 701.2,891.2 701,890.2 700.9,889.2 
		700.6,888.9 701,888.5 701.4,888.2 701.9,887.9 702,887.2 702.4,886.9 703.1,887.6 703.5,887.3 703.6,886.6 703.7,886 704.2,885.6 
		704.6,885.3 704.7,884.7 704.9,884 705,883.3 705.1,882.7 705.2,882 705.4,881.3 705.5,880.7 706.1,879.7 706.2,879 706.5,879.4 
		706.9,879.1 707.3,879.4 707.7,879.1 708.1,878.7 708.6,878.4 708.7,877.8 709.1,877.4 709.2,876.8 709.4,876.1 709.8,875.8 
		709.9,875.1 710.3,875.5 710.4,874.8 710.8,874.5 711.4,875.2 711.7,875.5 711.6,876.2 711.8,877.2 712,878.2 712.2,879.2 
		712.6,878.9 713.2,879.6 713.4,880.6 713.3,881.3 713.2,881.9 713.5,882.3 713.8,882.6 705.7,888.3 706,888.6 706.3,889 
		706.9,889.7 707.4,889.4 707.7,889.7 708.3,890.4 708.5,891.4 709,892.7 709.1,892.1 709.4,892.4 709.5,891.8 710,891.4 
		710.4,891.1 710.8,890.8 711.1,891.2 711.3,890.5 711.6,890.8 711.7,890.2 712.1,889.9 712.4,888.5 712.2,887.5 711.9,887.2 
		711.6,886.8 711.7,886.2 711.9,885.5 712,884.8 712.1,884.1 712.5,883.8 713,883.5 713.6,884.2 713.9,884.5 714,883.9 714.3,884.2 
		714.7,884.6 714.8,883.9 714.9,883.2 715,882.6 715.3,882.9 715.5,882.3 715.9,881.9 716.4,881.6 716.8,881.3 717.2,881 
		717.7,880.7 717.8,880 	"/>
	<polygon fill-rule="evenodd" fill="#E7E7F7" points="462.5,1046.3 464.5,1050.5 466.9,1055.6 469,1060.3 470.9,1065.3 
		472.9,1070.3 474.9,1075.8 476.7,1081.2 478.6,1086.6 479,1088.5 480.9,1095.7 481.1,1095.6 478,1105.1 477.9,1104.6 477.6,1103.9 
		477.5,1103.4 477.2,1102.6 476.9,1101.9 477,1102.4 476.7,1102.1 476.4,1101.4 476.1,1100.1 476,1099.6 475.9,1099.1 475.8,1098.6 
		475.8,1098.1 475.5,1097.4 475.2,1096.6 474.8,1095.9 474.7,1096.1 474.4,1095.9 474.5,1096.3 474.6,1096.8 474.4,1097.1 
		474.5,1098.1 474.3,1098.3 474.4,1098.8 474.2,1098.6 473.9,1098.3 473.6,1097.6 473.4,1097.3 473.1,1097 472.9,1096.8 
		472.6,1096.5 472.2,1096.5 472,1096.2 471.8,1096.5 471.4,1096.5 471.6,1096.7 471.4,1097 471.3,1097.2 474.6,1093 474.7,1094 
		474.8,1094.5 475,1094.7 475.1,1095.2 475.2,1095.7 475.2,1096.2 475.1,1096.4 474.8,1096.2 474.3,1095.7 474.1,1095.4 
		473.8,1095.2 473.5,1094.4 473.3,1094.2 473.2,1094.9 473.5,1095.6 473.3,1095.9 473.4,1096.4 473.4,1096.9 473.3,1097.1 
		473.1,1097.3 472.9,1097.6 472.7,1097.3 472.5,1097.6 472.6,1098.1 472.4,1098.3 472.2,1098.5 472,1098.3 471.7,1098 471.5,1097.8 
		471.2,1097.5 471.1,1097.8 470.8,1097.5 470.9,1098 470.6,1097.7 470.7,1098.2 470.5,1098.5 470.4,1098.7 469.9,1098.7 
		469.7,1098.4 469.4,1098.2 469.1,1097.4 468.9,1097.2 468.4,1096.6 468.1,1095.9 467.8,1095.6 467.5,1094.9 467.3,1094.6 
		467,1093.9 466.5,1093.4 466.2,1093.1 466.3,1093.6 466.1,1093.3 465.8,1093.1 465.6,1092.8 465.4,1093.1 465.3,1092.6 
		465.1,1092.3 464.6,1091.8 464.3,1091 463.9,1089.8 463.8,1088.8 463.4,1087.6 463.1,1086.8 464.7,1091.7 464.3,1090.4 464,1089.2 
		463.6,1088.4 463.6,1087.9 463.5,1087.4 463.2,1086.7 463.1,1086.2 462.8,1085.4 462.5,1084.7 462.2,1083.9 461.9,1083.7 
		461.6,1082.9 461.3,1082.2 460.8,1081.7 460.7,1081.2 460.5,1080.9 460.3,1081.2 460.3,1080.7 460.2,1080.2 460.1,1079.7 
		459.8,1078.9 459.7,1078.4 459.4,1077.7 459.4,1077.2 459.3,1076.7 459.2,1076.2 459.2,1075.7 459.1,1075.2 459.3,1074.9 
		459.1,1074 459,1073 458.7,1072.2 458.5,1071.2 458.2,1070.5 458.1,1069.5 457.8,1068.7 457.6,1067.8 457.6,1067.3 457.5,1066.8 
		457.4,1066.3 457.6,1066 457.5,1065.5 457.8,1065.8 457.7,1064.8 457.6,1064.3 457.2,1063.1 456.8,1061.8 456.5,1061.1 
		456.1,1059.8 456,1058.8 455.9,1057.8 455.7,1056.3 455.8,1055.6 455.7,1055.1 455.4,1054.4 455.1,1053.6 454.8,1053.4 455,1053.1 
		455.2,1052.9 455.3,1052.6 455.3,1052.1 455.4,1051.9 455.9,1052.4 456.1,1052.2 456,1051.7 456,1051.2 456.2,1051 456.3,1050.7 
		456.3,1050.2 456.2,1049.7 456.1,1049.2 456.1,1048.8 456,1048.3 455.9,1047.8 455.9,1047.3 456,1046.5 455.9,1046 456.1,1046.3 
		456.3,1046.1 456.5,1046.3 456.7,1046.1 456.9,1045.8 457.1,1045.6 457,1045.1 457.2,1044.9 457.1,1044.4 457.1,1043.9 
		457.2,1043.6 457.2,1043.1 457.4,1043.4 457.3,1042.9 457.5,1042.7 458,1043.2 458.2,1043.4 458.3,1043.9 458.6,1044.7 
		458.9,1045.4 459.3,1046.2 459.4,1046 459.9,1046.5 460.2,1047.2 460.3,1047.7 460.4,1048.2 460.6,1048.5 460.8,1048.7 
		457.5,1052.9 457.8,1053.2 458,1053.4 458.5,1053.9 458.7,1053.7 458.9,1054 459.4,1054.5 459.7,1055.2 460.3,1056.2 460.2,1055.8 
		460.5,1056 460.4,1055.5 460.6,1055.3 460.7,1055 460.9,1054.8 461.2,1055 461.1,1054.6 461.3,1054.8 461.3,1054.3 461.5,1054.1 
		461.3,1053.1 461,1052.3 460.8,1052.1 460.5,1051.8 460.4,1051.3 460.4,1050.8 460.3,1050.4 460.2,1049.9 460.4,1049.6 
		460.6,1049.4 461.1,1049.9 461.3,1050.1 461.3,1049.6 461.5,1049.9 461.7,1050.2 461.7,1049.7 461.6,1049.2 461.5,1048.7 
		461.8,1048.9 461.7,1048.4 461.9,1048.2 462.1,1048 462.2,1047.7 462.4,1047.5 462.6,1047.2 462.5,1046.8 	"/>
	<path fill-rule="evenodd" fill="#E7E7F7" d="M428.9,803.7h-7.4c0,1.5-7.4,10.4-10.4,10.4c0,4.5-7.4,7.5-7.4,11.9h-1.5h-1.5
		l-1.5,1.5c0,4.5,1.5,7.5,0,11.9l1.5,1.5h1.5h1.5l1.5-7.5h1.5v-3l3-3h5.9v-7.4h5.9c0-1.5,1.5-3,3-3v-7.5c1.5,0,4.4,0,4.4-1.5h16.3
		v-1.5v-1.5h-1.5h-1.5v-6h-1.5v3c-1.5,0-3,1.5-3,3C436.3,805.2,427.5,805.2,428.9,803.7"/>
	<path fill-rule="evenodd" fill="#E7E7F7" d="M596.9,1108.1c-4.4,5.6-4.4,7-11.8,7c0,1.4-1.5,5.6-3,5.6v4.2c-1.5,0-3,1.4-3,2.8
		c-5.9,0-13.3,1.4-19.2,1.4v2.8l-1.5,1.4l-11.8,1.4c0,1.4-4.4,4.2-5.9,5.6h-1.5h-1.5c-4.4,4.2-20.7,2.8-28.1,2.8v1.4v1.4
		c1.5,0,5.9,1.4,5.9,2.8h4.4l1.5,2.8h16.3l1.5-2.8c3,0,4.4-1.4,5.9-1.4v4.2l3,2.8c14.8,0,26.6-8.5,41.4-8.5c0-1.4,1.5-2.8,3-2.8
		v-1.4v-1.4c3,0,5.9-4.2,7.4-4.2c0,2.8-1.5,5.6-1.5,8.4l1.5,1.4c5.9,0,13.3,0,14.8-4.2l1.5-1.4h4.4l4.4-4.2v-4.2h4.4
		c0-1.4,4.4-2.8,4.4-5.6c1.5,0,11.8-8.5,13.3-8.5c0-2.8,1.5-2.8,1.5-4.2c-3,0-5.9,1.4-8.9,1.4c0,1.4-13.3,12.7-14.8,14.1h-4.4v-1.4
		v-1.4l-3-1.4c1.5-1.4,4.4-2.8,4.4-5.6c1.5,0,3-4.2,7.4-4.2l1.5-1.4v-1.4l1.5-1.4c3,0,7.4-2.8,8.9-4.2h4.4c0-1.4,5.9-4.2,5.9-4.2
		l1.5-1.4c0-1.4,1.5-2.8,3-2.8c0-1.4,1.5-2.8,1.5-4.2c-4.4,0-8.9,1.4-11.8,1.4c-3,2.8-7.4,5.6-13.3,5.6c-4.4,4.2-17.8,8.4-22.2,8.4
		v-4.2c-1.5,0-5.9,0-5.9,1.4h-4.4l-1.5,2.8h-1.5V1108.1z"/>
	<path fill-rule="evenodd" fill="#E7E7F7" d="M561.7,795.5h-3.6l-0.6-0.6l-0.6-0.6c0-1.2-1.2-1.2-1.2-1.2v-0.6c-0.6,0-2.4-0.6-3-0.6
		c0,1.2-1.2,3.6-1.2,4.8l-9.6-0.6c0.6-0.6,1.2,0.6,1.2,1.8c-1.2,0-1.8,1.2-2.4,1.2c0,0.6,1.2,3.6,1.8,3.6l0.6-0.6v-0.6l0.6-0.6h1.8
		l0.6,1.2h0.6h0.6c0-0.6,1.2-1.2,1.2-1.8h3.6l0.6-1.2h3l0.6,1.2c0.6,0,1.2,0.6,1.8,1.2h3l1.2,0.6c0,0,1.2,1.2,1.2,1.8
		c0.6,0,1.2,0.6,1.2,1.2l1.2,1.2c0-1.8-1.8-4.8-3.6-4.8c0-1.2-0.6-1.8-0.6-2.4h1.8v-2.4c-1.2,0,0-0.6-1.2-0.6v-0.6H561.7z
		 M498.5,793.7c-1.5,3-8.1,21-13.8,14.8c-3.8-4-13.7,12.1-13.7,19.6c-1.3,0-2.6,1.3-2.6,1.3c2.6,1.3,3.9,1.3,5.3,0
		c0,1.3,1.3,2.7,1.3,4l1.3,1.3l7.9,1.3c1.3-1.3,5.3-5.3,5.3-7.9c0,2.6,3.9,7.9,3.9,10.6l3.9-5.3c1.3,2.6,5.3,2.6,7.9,2.6
		c0-4,11.8-6.6,11.8-6.6c0,2.7,7.9-6.6,9.2-7.9v-2.7l1.3-1.3h3.9c0,2.6,2.6,4,3.9,5.3c0,5.3,1.3,0,1.3,5.3l1.3,1.3
		c2.6-2.6,1.6-1.1,4.2-3.7c0,2.7,0.4,9.5,0.4,12.1c3.6,4.8,11.7-0.2,13.8-3.1c0,7.4,3.6,17,10.5,21.6c0,8.4,9.7,18.2,9.7,20.1
		l0.9,2.4c1.3-2.6,3.7,0.5,3.7-2.1c1.3,0,2.6-3.6,3.9-3.6c0-2.6,0.7-9.1,0.7-11.7l3.8-0.2c0-1.3,3.5-5.3,6.2-5.3l5.1-8.7
		c-0.2-6.1,8.7-12.3,10.4-13.4l2.6,3.4h1.3h1.3l2.8,2.1v2.6c0,0,4.9,8.1,4.9,10.7l2.8-1.7l10.3-10.3c1.3,2.6,10,6.5,12.6,6.5
		c0-2.7,3.9,15.8,3.9,10.5c3.9,0-0.7-22.9,3.3-22.9c-2.3,4.1-6.2-15.9-21.4-26.9c0-2.6-3.2,3.1-4.5,1.8c0-1.3-0.2-4.9-0.2-6.3
		c-2.6,0-6.4-0.3-7.7-0.3l-13.8-16.1c-4.4-2.6-6.8-5.4-10.5-6.8c-3.7-1.4-6.1-5.8-10.7-3.1c0,5.3-1.9,1.5-0.6,6.8
		c5.3,0-7.7,1.6-9,1.6c0,2.6-2.7,16.3-5.4,17.7c0-2.7-3.9-4-5.3-4v-10.6l2.6-1.3v-6.6c-1.3-0.6-5.8-0.1-4.4-2.2
		c3.1-4.2-8.8-5.8-7.6-6.7c4.3-3.2-3.6,2.3-9.5-2c-3.3-2.5-21.3-1.4-25.2,2.5l15,0.5c0,9.3-15.8,15.9-15.8,11.9
		c-2.6,2.6-5.2,4-5.2,6.6H513c0,0-3.9-4-3.9-5.3h-3.9v4c-1.3,0-2.6,1.3-3.9,1.3c0,1.3-2.6,4-2.6,4h-1.3h-1.3L498.5,793.7z"/>
	<path fill-rule="evenodd" fill="#E7E7F7" d="M588.3,873.2v3.6l-0.7,0.7c-2.8,0-1.4,4.3-1.4,5h1.4v0.7h3.6l0.7,1.4h0.7l0.7-0.7v-6.4
		h-0.7h-0.7v-1.4h-0.7v-0.7v-0.7h-0.7v-1.4H588.3z"/>
	<path fill-rule="evenodd" fill="#ADADDB" d="M548.5,907.3c-8.2-9.2-30.8-36.9-55.1-40.9c-49.2-8.2-49.1-3.6-145.2-14.2
		c-1.2,0-4.1,1.3-3.9,2.6c42.2,24.9,89.5,31.4,132.9,48.6c18.4,7.2,27.8,20.1,34.3,41.2c-10.7,37.4-55.1,55.8-83.7,68.7
		c-1.5,3.7,6-1.6,9,1.2c2,1.9,19.1,1.5,25-1.2c4.5-2,10.1-5,9.3-3.8c-0.8,1.2-2.5,5.5-5.4,9.3c-7,9.1-17.5,14.5-20.1,18.2
		c2.2,0.7,26.9-7.5,36.5-18.2c2.2-2.4,10.3-5.6,12.9-7c21.9-11.4,44.5-16.8,58.6-29.5c42.5,9.1,66.1,32.7,72.8,42.4
		c3.2-1.5,35.3,55.7,53.9,89.5c11.2,12.5,20.6,18.8,20,17.8c-10.6-37.5-35.3-150.5-78.8-173.8c-4.7-2.5-28.9-13.1-31.5-15.1
		c-1.2-1.2-5.8-3.5-6-5.2c-3.6-6.3,0.6-10,7.3-13.7c7.3-4.1,17.3-20.5,19.9-24.2c-1.9-2.4-8.1-0.8-9.9-3.4
		c-6.9-10.4-29.6-2.7-40.3,13.8C555.1,913.8,556,911.7,548.5,907.3"/>
</g>
</svg>
